<svg width="57" height="28" viewBox="0 0 57 28" fill="none" xmlns="http://www.w3.org/2000/svg">
<path d="M3.99906 4.4433C6.55576 3.7365 9.01176 3.06831 11.4636 2.39141C11.953 2.25861 12.2983 2.16441 12.8862 1.89921C13.3248 1.70671 14.2465 1.279 13.9473 0.865405C13.6633 0.549905 13.4199 0.362406 12.5479 0.512706C10.2977 0.911906 8.11846 1.63541 5.95266 2.34181C4.04056 2.96681 2.59166 3.47191 0.930963 4.12221C0.155363 4.42601 0.031263 4.92971 0.443063 5.55231C0.812863 6.11091 1.18216 6.69091 1.65366 7.16831C3.34396 8.89911 5.07436 10.5786 6.79556 12.2837C7.00806 12.4968 7.16036 12.6759 7.45096 12.8932C7.80566 13.1531 8.04856 13.362 8.37636 13.0757C8.69076 12.8065 8.42396 12.3033 8.23786 12.0773C6.72566 10.1544 3.53776 6.24031 3.41726 5.99301C4.91666 6.14931 6.30846 6.26301 7.69416 6.45361C17.3368 7.82611 26.7821 9.86441 35.5666 14.0926C42.5196 17.4394 48.9306 21.5463 54.6686 26.6354C55.0096 26.9337 55.3806 27.2065 55.7446 27.4621C56.2316 27.8158 56.5506 27.9136 56.7606 27.6744C57.0926 27.1748 56.8266 26.8507 56.6376 26.5736C56.2676 26.0149 55.7696 25.529 55.2896 25.0558C48.7966 18.794 41.1216 14.2788 32.7866 10.75C24.2326 7.1275 15.1635 5.54961 5.90826 4.72721C5.41796 4.70211 4.21436 4.5285 3.99906 4.4433Z" fill="#F67ACB"/>
</svg>
